<?xml version="1.0" standalone="no"?><!DOCTYPE svg PUBLIC "-//W3C//DTD SVG 1.1//EN" "http://www.w3.org/Graphics/SVG/1.1/DTD/svg11.dtd"><svg t="1714532081726" class="icon" viewBox="0 0 1024 1024" version="1.1" xmlns="http://www.w3.org/2000/svg" p-id="2001" xmlns:xlink="http://www.w3.org/1999/xlink" width="200" height="200"><path d="M874.0352 153.6H150.016A98.7648 98.7648 0 0 0 51.2 252.3648v526.592c0 54.528 44.1856 98.7648 98.7648 98.7648H873.984A98.7648 98.7648 0 0 0 972.8 778.9568V252.416A98.7648 98.7648 0 0 0 874.0352 153.6z m-48.6912 65.8432L512 441.856 202.5984 219.4432H825.344z m81.6128 559.5136a32.9216 32.9216 0 0 1-32.9216 32.9216H150.016a32.9216 32.9216 0 0 1-32.9216-32.9216V252.416a25.6512 25.6512 0 0 1 0-11.8784L512 523.5712l394.9568-280.4224a23.04 23.04 0 0 1 0 9.216v526.592z" p-id="2002" fill="#8a8a8a"></path></svg>